<svg width="140" height="28" viewBox="0 0 140 28" fill="none" xmlns="http://www.w3.org/2000/svg">
<g clip-path="url(#clip0_1578_5334)">
<path d="M3.68527 3.61784H6.72793C9.5088 3.61784 10.7343 4.48976 10.7343 6.26091C10.7343 7.80008 9.5088 8.84518 7.049 8.84518H3.68527V3.61784ZM0 21.033H7.45733C11.3764 21.033 15.2955 19.6439 15.2955 15.1723C15.2955 12.5292 13.4279 10.5001 10.8253 10.2065V10.1454C12.9547 9.51243 14.4233 7.97372 14.4233 5.65108C14.4233 1.90596 11.2019 0.484863 8.07193 0.484863H0V21.033ZM3.68527 11.9782H7.22353C10.2065 11.9782 11.6153 12.7338 11.6153 14.8833C11.6153 17.5787 8.9768 17.9001 7.07653 17.9001H3.68527V11.9782Z" fill="white"/>
<path d="M19.4625 21.033V0" stroke="white" stroke-width="3.5" stroke-miterlimit="10"/>
<path d="M27.0714 14.0684C27.0714 11.8916 28.6226 9.89078 31.1972 9.89078C33.7718 9.89078 35.3183 11.8921 35.3183 14.0684C35.3183 16.2447 33.7718 18.2465 31.1972 18.2465C28.6221 18.2465 27.0714 16.2452 27.0714 14.0684ZM23.5607 14.0684C23.5607 18.4511 26.9519 21.3794 31.1972 21.3794C35.4373 21.3794 38.8337 18.4516 38.8337 14.0684C38.8337 9.68519 35.4378 6.75317 31.1972 6.75317C26.9519 6.75271 23.5607 9.68565 23.5607 14.0684Z" fill="white"/>
<path d="M43.9271 14.0684C43.9271 11.8916 45.4783 9.89078 48.0529 9.89078C50.6275 9.89078 52.174 11.8921 52.174 14.0684C52.174 16.2447 50.6275 18.2465 48.0529 18.2465C45.4783 18.2465 43.9271 16.2452 43.9271 14.0684ZM40.4164 14.0684C40.4164 18.4511 43.8081 21.3794 48.0529 21.3794C52.293 21.3794 55.6894 18.4516 55.6894 14.0684C55.6894 9.68519 52.2935 6.75317 48.0529 6.75317C43.8076 6.75271 40.4164 9.68565 40.4164 14.0684Z" fill="white"/>
<path d="M57.8275 7.10126H61.1637V9.28036H61.2188C61.8338 7.97364 63.1783 6.75073 65.5186 6.75073C67.6849 6.75073 69.181 7.5907 69.9104 9.335C70.9338 7.56801 72.4253 6.75073 74.5272 6.75073C78.2717 6.75073 79.5896 9.39612 79.5896 12.7342V21.0334H76.0788V13.1394C76.0788 11.3997 75.5557 9.89019 73.4767 9.89019C71.2834 9.89019 70.4616 11.6887 70.4616 13.4853V21.033H66.9555V12.7338C66.9555 11.0168 66.2532 9.89019 64.5555 9.89019C62.2469 9.89019 61.3382 11.5683 61.3382 13.4283V21.033H57.8275V7.10126Z" fill="white"/>
<path d="M94.0772 14.0683C94.0772 16.2474 92.5306 18.2464 89.9514 18.2464C87.3763 18.2464 85.8256 16.2474 85.8256 14.0683C85.8256 11.8915 87.3763 9.88559 89.9514 9.88559C92.5306 9.88559 94.0772 11.8915 94.0772 14.0683ZM82.4343 21.033H85.7705V18.9446H85.8256C86.8532 20.6227 88.6937 21.3789 90.6574 21.3789C94.9806 21.3789 97.5874 18.1866 97.5874 14.0678C97.5874 9.94672 94.8066 6.75262 90.8002 6.75262C88.1701 6.75262 86.7617 7.96858 86.0318 8.87476H85.9446V0H82.4338L82.4343 21.033Z" fill="white"/>
<path d="M102.686 12.6751C102.948 10.6692 104.237 9.36476 106.312 9.36476C108.505 9.36476 109.85 10.6423 109.882 12.6751H102.686ZM113.393 15.2867V14.3305C113.393 9.48098 110.731 6.75317 106.812 6.75317C102.562 6.75317 99.1753 9.68565 99.1753 14.0684C99.1753 18.4511 102.562 21.3794 106.812 21.3794C109.028 21.3794 111.112 20.5964 112.745 18.597L110.231 16.7142C109.354 17.7825 108.211 18.597 106.458 18.597C104.499 18.597 102.915 17.3472 102.686 15.2867H113.393Z" fill="white"/>
<path d="M115.678 7.10126H119.188V9.30768H119.248C120.01 7.71155 121.556 6.75073 123.401 6.75073C123.842 6.75073 124.25 6.83964 124.658 6.95771V10.3231C124.075 10.1796 123.516 10.0634 122.96 10.0634C119.656 10.0634 119.188 12.8227 119.188 13.5788V21.0334H115.677L115.678 7.10126Z" fill="white"/>
<path d="M132.511 9.89019C135.054 9.89019 136.664 11.5683 136.664 13.9835C136.664 16.3015 135.085 18.0727 132.483 18.0727C130.115 18.0727 128.357 16.2446 128.357 14.0382C128.357 11.5683 130.051 9.89019 132.511 9.89019ZM136.664 7.10126V9.19145H136.609C135.581 7.50643 133.737 6.75073 131.777 6.75073C127.45 6.75073 124.847 9.94483 124.847 14.0683C124.847 18.0116 127.628 21.2061 131.837 21.2061C133.594 21.2061 135.407 20.5412 136.435 19.1775H136.485V20.1953C136.485 22.95 135.439 24.8675 132.043 24.8675C130.084 24.8675 128.619 24.1386 127.215 22.8546L125.113 25.7046C127.096 27.4531 129.468 28 132.075 28C137.546 28 140 24.8036 140 19.785V7.10126H136.664Z" fill="white"/>
</g>
<defs>
<clipPath id="clip0_1578_5334">
<rect width="140" height="28" fill="white"/>
</clipPath>
</defs>
</svg>
