<svg width="134" height="34" viewBox="0 0 134 34" fill="none" xmlns="http://www.w3.org/2000/svg">
<g clip-path="url(#clip0_1578_5348)">
<path d="M34.272 20.3748C33.6503 20.3748 33.0804 20.6842 32.7695 21.2001C32.4587 21.7159 32.4587 22.3864 32.7695 22.9023C33.0804 23.4181 33.6503 23.7534 34.272 23.7276C35.2046 23.7018 35.9299 22.9538 35.9299 22.0512C35.9558 21.1485 35.2046 20.4005 34.272 20.3748Z" fill="white"/>
<path d="M32.1219 24.7593C31.3189 24.7593 30.6713 25.404 30.6713 26.1778C30.6713 26.9773 31.3189 27.6221 32.1219 27.6221C32.925 27.6221 33.5726 26.9773 33.5726 26.1778C33.5726 25.404 32.925 24.7593 32.1219 24.7593Z" fill="white"/>
<path d="M28.9758 30.663C29.6622 30.6402 30.2 30.0679 30.1771 29.3846C30.1543 28.7013 29.5794 28.1658 28.8931 28.1885C28.2068 28.2113 27.6689 28.7837 27.6918 29.467C27.7146 30.1502 28.2895 30.6857 28.9758 30.663Z" fill="white"/>
<path d="M25.335 30.5107C24.7651 30.5107 24.3247 30.9492 24.3247 31.5166C24.3247 32.084 24.7651 32.5224 25.335 32.5224C25.9049 32.5224 26.3453 32.084 26.3453 31.5166C26.3453 30.9492 25.9049 30.5107 25.335 30.5107Z" fill="white"/>
<path d="M21.8119 31.7227C21.3456 31.7227 20.957 32.1095 20.957 32.5738C20.957 33.038 21.3456 33.4249 21.8119 33.4249C22.2782 33.4249 22.6667 33.038 22.6667 32.5738C22.6927 32.1095 22.3041 31.7227 21.8119 31.7227Z" fill="white"/>
<path d="M18.522 32.2126C18.1075 32.2126 17.7708 32.5479 17.7708 32.9606C17.7708 33.3732 18.1075 33.7085 18.522 33.7085C18.9365 33.7085 19.2732 33.3732 19.2732 32.9606C19.2473 32.5479 18.9106 32.2126 18.522 32.2126Z" fill="white"/>
<path d="M15.2063 31.7227C14.74 31.7227 14.3514 32.1095 14.3514 32.5738C14.3514 33.038 14.74 33.4249 15.2063 33.4249C15.6726 33.4249 16.0612 33.038 16.0612 32.5738C16.0612 32.1095 15.6726 31.7227 15.2063 31.7227Z" fill="white"/>
<path d="M11.683 30.4849C11.3204 30.4849 10.9836 30.6654 10.8023 30.9749C10.6209 31.2844 10.6209 31.6712 10.8023 31.9807C10.9836 32.2902 11.3204 32.4708 11.683 32.4708C12.227 32.4708 12.6933 32.0323 12.6933 31.4649C12.6674 30.9491 12.227 30.5107 11.683 30.4849Z" fill="white"/>
<path d="M8.08232 28.1895C7.64194 28.1895 7.22746 28.4216 6.99432 28.8084C6.76117 29.1953 6.76117 29.6595 6.99432 30.0464C7.22746 30.4333 7.61603 30.6654 8.08232 30.6654C8.75584 30.6654 9.32575 30.1238 9.32575 29.4274C9.32575 28.7568 8.78175 28.1895 8.08232 28.1895Z" fill="white"/>
<path d="M4.89598 24.7593C4.09293 24.7593 3.44531 25.404 3.44531 26.2036C3.44531 27.0031 4.09293 27.6478 4.89598 27.6478C5.69903 27.6478 6.34665 27.0031 6.34665 26.2036C6.32075 25.404 5.69903 24.7593 4.89598 24.7593Z" fill="white"/>
<path d="M2.74576 20.3747C2.12404 20.3489 1.55413 20.6842 1.24328 21.2C0.932417 21.7158 0.932417 22.3864 1.24328 22.9022C1.55413 23.418 2.12404 23.7533 2.74576 23.7275C3.67833 23.7017 4.40366 22.9538 4.40366 22.0511C4.40366 21.1484 3.65242 20.4005 2.74576 20.3747Z" fill="white"/>
<path d="M1.96877 14.9072C0.880764 14.9072 0 15.7841 0 16.8673C0 17.9505 0.880764 18.8274 1.96877 18.8274C3.05677 18.8274 3.93753 17.9505 3.93753 16.8673C3.91163 15.7841 3.05677 14.9072 1.96877 14.9072Z" fill="white"/>
<path d="M2.74576 9.95532C2.12404 9.95532 1.55413 10.2648 1.24328 10.7806C0.932417 11.2964 0.932417 11.967 1.24328 12.4828C1.55413 12.9986 2.12404 13.3339 2.74576 13.3081C3.67833 13.2823 4.40366 12.5344 4.40366 11.6317C4.40366 10.729 3.65242 9.98111 2.74576 9.95532Z" fill="white"/>
<path d="M4.896 6.06104C4.3779 6.06104 3.88571 6.31894 3.62666 6.78318C3.36761 7.22162 3.36761 7.78902 3.62666 8.22746C3.88571 8.66591 4.3779 8.94961 4.896 8.94961C5.67314 8.92381 6.32076 8.30484 6.32076 7.50532C6.29486 6.7316 5.67314 6.08683 4.896 6.06104Z" fill="white"/>
<path d="M8.08242 3.01758C7.4089 3.01758 6.83899 3.55918 6.83899 4.25554C6.83899 4.9261 7.38299 5.49349 8.08242 5.49349C8.75595 5.49349 9.32585 4.95189 9.32585 4.25554C9.32585 3.58498 8.78185 3.01758 8.08242 3.01758Z" fill="white"/>
<path d="M11.683 1.18652C11.139 1.18652 10.6727 1.62497 10.6727 2.19236C10.6727 2.73397 11.1131 3.19821 11.683 3.19821C12.227 3.19821 12.6933 2.75976 12.6933 2.19236C12.6674 1.65076 12.227 1.18652 11.683 1.18652Z" fill="white"/>
<path d="M15.2062 0.258057C14.714 0.258057 14.3254 0.644919 14.3254 1.13494C14.3254 1.62497 14.714 2.01183 15.2062 2.01183C15.6725 2.01183 16.0611 1.62497 16.0611 1.16073C16.0352 0.644919 15.6725 0.258057 15.2062 0.258057Z" fill="white"/>
<path d="M18.496 0C18.0815 0 17.7448 0.33528 17.7448 0.747933C17.7448 1.16059 18.0815 1.49587 18.496 1.49587C18.9105 1.49587 19.2472 1.16059 19.2472 0.747933C19.2472 0.33528 18.9105 0 18.496 0Z" fill="white"/>
<path d="M21.8119 0.258057C21.3456 0.258057 20.957 0.644919 20.957 1.10915C20.957 1.57339 21.3456 1.96025 21.8119 1.96025C22.2782 1.96025 22.6667 1.57339 22.6667 1.10915C22.6927 0.644919 22.3041 0.258057 21.8119 0.258057Z" fill="white"/>
<path d="M25.335 1.18652C24.9723 1.18652 24.6356 1.36706 24.4542 1.67655C24.2729 1.98604 24.2729 2.3729 24.4542 2.68239C24.6356 2.99188 24.9723 3.17242 25.335 3.17242C25.879 3.17242 26.3453 2.73397 26.3453 2.16657C26.3453 1.59918 25.9049 1.18652 25.335 1.18652Z" fill="white"/>
<path d="M28.9358 3.04346C28.2623 3.04346 27.6924 3.58506 27.6924 4.28142C27.6924 4.95198 28.2364 5.51937 28.9358 5.51937C29.6093 5.51937 30.1792 4.97777 30.1792 4.28142C30.1792 3.58506 29.6093 3.04346 28.9358 3.04346Z" fill="white"/>
<path d="M32.1219 6.06104C31.3189 6.06104 30.6713 6.70581 30.6713 7.50532C30.6713 8.30484 31.3189 8.94961 32.1219 8.94961C32.925 8.94961 33.5726 8.30484 33.5726 7.50532C33.5726 6.70581 32.925 6.06104 32.1219 6.06104Z" fill="white"/>
<path d="M34.272 9.95532C33.6503 9.95532 33.0804 10.2648 32.7695 10.7806C32.4587 11.2964 32.4587 11.967 32.7695 12.4828C33.0804 12.9986 33.6503 13.3339 34.272 13.3081C35.2046 13.2823 35.9299 12.5344 35.9299 11.6317C35.9299 10.7033 35.2046 9.95532 34.272 9.95532Z" fill="white"/>
<path d="M26.5007 19.4204C26.2157 19.4204 25.9566 19.5494 25.8271 19.7815C25.6976 20.0136 25.6976 20.3231 25.8271 20.5552C25.9566 20.7873 26.2157 20.9421 26.5007 20.9163C26.9151 20.8905 27.226 20.5552 27.226 20.1683C27.2519 19.7815 26.9151 19.4462 26.5007 19.4204Z" fill="white"/>
<path d="M24.6095 22.2317C24.3246 22.2317 24.0655 22.3606 23.936 22.5928C23.8065 22.8249 23.8065 23.1344 23.936 23.3665C24.0655 23.5986 24.3505 23.7533 24.6095 23.7276C25.024 23.7018 25.3349 23.3665 25.3349 22.9796C25.3349 22.5928 25.024 22.2575 24.6095 22.2317Z" fill="white"/>
<path d="M21.786 24.0371C21.501 24.0371 21.2161 24.1919 21.0607 24.4498C20.9052 24.7077 20.9052 25.0172 21.0607 25.2751C21.2161 25.533 21.4751 25.6877 21.786 25.6877C22.2523 25.6877 22.615 25.3267 22.615 24.8624C22.615 24.3982 22.2523 24.0371 21.786 24.0371Z" fill="white"/>
<path d="M18.4701 24.5271C17.8484 24.5271 17.3562 25.0171 17.3562 25.6361C17.3562 26.2551 17.8484 26.7451 18.4701 26.7451C19.0918 26.7451 19.584 26.2551 19.584 25.6361C19.5581 25.0171 19.0659 24.5271 18.4701 24.5271Z" fill="white"/>
<path d="M15.1283 23.8564C14.4289 23.8564 13.859 24.4238 13.859 25.1202C13.859 25.8165 14.4289 26.3839 15.1283 26.3839C15.8278 26.3839 16.3977 25.8165 16.3977 25.1202C16.3977 24.4238 15.8278 23.8564 15.1283 23.8564Z" fill="white"/>
<path d="M12.1236 21.7417C11.3464 21.7417 10.7247 22.3607 10.7247 23.1344C10.7247 23.9081 11.3464 24.5271 12.1236 24.5271C12.9007 24.5271 13.5225 23.9081 13.5225 23.1344C13.5225 22.3607 12.9007 21.7417 12.1236 21.7417Z" fill="white"/>
<path d="M10.1289 18.9048C9.48123 18.9048 8.96313 19.4206 8.96313 20.0654C8.96313 20.7101 9.48123 21.226 10.1289 21.226C10.7765 21.226 11.2946 20.7101 11.2946 20.0654C11.3205 19.4464 10.7765 18.9048 10.1289 18.9048Z" fill="white"/>
<path d="M9.66241 15.8098C9.17021 15.8098 8.75574 16.2225 8.75574 16.7125C8.75574 17.2025 9.17021 17.6152 9.66241 17.6152C10.1546 17.6152 10.5691 17.2025 10.5691 16.7125C10.5691 16.1967 10.1805 15.8098 9.66241 15.8098Z" fill="white"/>
<path d="M10.4655 12.7666C10.051 12.7666 9.71423 13.1019 9.71423 13.5145C9.71423 13.9272 10.051 14.2625 10.4655 14.2625C10.88 14.2625 11.2167 13.9272 11.2167 13.5145C11.2426 13.1019 10.88 12.7666 10.4655 12.7666Z" fill="white"/>
<path d="M12.3825 9.98096C12.0975 9.98096 11.8385 10.1099 11.709 10.342C11.5794 10.5741 11.5794 10.8836 11.709 11.1158C11.8385 11.3479 12.1234 11.5026 12.3825 11.4768C12.797 11.4768 13.1337 11.1415 13.1337 10.7289C13.1078 10.3162 12.7711 9.98096 12.3825 9.98096Z" fill="white"/>
<path d="M15.1804 8.021C14.7141 8.021 14.3514 8.38207 14.3514 8.8463C14.3514 9.31054 14.7141 9.67161 15.1804 9.67161C15.6467 9.67161 16.0093 9.31054 16.0093 8.8463C16.0093 8.40786 15.6467 8.021 15.1804 8.021Z" fill="white"/>
<path d="M19.63 8.10165C19.6536 7.48959 19.1743 6.97436 18.5596 6.95086C17.9448 6.92735 17.4273 7.40447 17.4037 8.01653C17.3801 8.62858 17.8593 9.14381 18.4741 9.16732C19.0889 9.19082 19.6064 8.7137 19.63 8.10165Z" fill="white"/>
<path d="M21.8378 7.32446C21.1384 7.32446 20.5685 7.89186 20.5685 8.58821C20.5685 9.28456 21.1384 9.85196 21.8378 9.85196C22.5372 9.85196 23.1072 9.28456 23.1072 8.58821C23.1072 7.89186 22.5372 7.32446 21.8378 7.32446Z" fill="white"/>
<path d="M24.8427 9.18164C24.0656 9.18164 23.4438 9.80062 23.4438 10.5743C23.4438 11.3481 24.0656 11.967 24.8427 11.967C25.6199 11.967 26.2416 11.3481 26.2416 10.5743C26.2416 9.80062 25.6199 9.18164 24.8427 9.18164Z" fill="white"/>
<path d="M26.8375 12.457C26.1898 12.457 25.6718 12.9728 25.6718 13.6176C25.6718 14.2624 26.1898 14.7782 26.8375 14.7782C27.4851 14.7782 28.0032 14.2624 28.0032 13.6176C28.0032 12.9728 27.4851 12.457 26.8375 12.457Z" fill="white"/>
<path d="M23.7806 18.9821C24.1669 18.9821 24.48 18.6703 24.48 18.2857C24.48 17.9011 24.1669 17.5894 23.7806 17.5894C23.3943 17.5894 23.0812 17.9011 23.0812 18.2857C23.0812 18.6703 23.3943 18.9821 23.7806 18.9821Z" fill="white"/>
<path d="M22.4078 19.7559C21.8379 19.7559 21.3716 20.2201 21.3716 20.7875C21.3716 21.3549 21.8379 21.8191 22.4078 21.8191C22.9777 21.8191 23.444 21.3549 23.444 20.7875C23.4699 20.2201 23.0036 19.7559 22.4078 19.7559Z" fill="white"/>
<path d="M19.7394 21.1487C19.1436 21.1487 18.6514 21.6387 18.6514 22.2319C18.6514 22.8251 19.1436 23.3151 19.7394 23.3151C20.3352 23.3151 20.8274 22.8251 20.8274 22.2319C20.8274 21.6387 20.3352 21.1487 19.7394 21.1487Z" fill="white"/>
<path d="M16.5791 21.0713C16.2423 21.0713 15.9056 21.2518 15.7501 21.5613C15.5688 21.8708 15.5688 22.2319 15.7501 22.5156C15.9315 22.8251 16.2423 23.0056 16.5791 23.0056C17.1231 23.0056 17.5376 22.5672 17.5376 22.0513C17.5635 21.5097 17.1231 21.0713 16.5791 21.0713Z" fill="white"/>
<path d="M14.2475 19.4978C13.859 19.4978 13.5481 19.8073 13.5481 20.1942C13.5481 20.581 13.859 20.8905 14.2475 20.8905C14.6361 20.8905 14.947 20.581 14.947 20.1942C14.9729 19.8331 14.6361 19.4978 14.2475 19.4978Z" fill="white"/>
<path d="M13.3152 17.4604C13.0302 17.4604 12.797 17.6926 12.797 17.9763C12.797 18.26 13.0302 18.4921 13.3152 18.4921C13.6002 18.4921 13.8334 18.26 13.8334 17.9763C13.8334 17.6926 13.6002 17.4604 13.3152 17.4604Z" fill="white"/>
<path d="M13.2633 14.8042C12.8747 14.8042 12.5638 15.1137 12.5638 15.5005C12.5638 15.8874 12.8747 16.1969 13.2633 16.1969C13.6518 16.1969 13.9627 15.8874 13.9627 15.5005C13.9627 15.1137 13.6518 14.8042 13.2633 14.8042Z" fill="white"/>
<path d="M14.6362 11.9412C14.0663 11.9412 13.6 12.4054 13.6 12.9728C13.6 13.5402 14.0663 14.0044 14.6362 14.0044C15.2061 14.0044 15.6724 13.5402 15.6724 12.9728C15.6724 12.4054 15.2061 11.9412 14.6362 11.9412Z" fill="white"/>
<path d="M17.3043 10.4453C16.7085 10.4453 16.2163 10.9353 16.2163 11.5285C16.2163 12.1217 16.7085 12.6117 17.3043 12.6117C17.9001 12.6117 18.3923 12.1217 18.3923 11.5285C18.3923 10.9353 17.9001 10.4453 17.3043 10.4453Z" fill="white"/>
<path d="M20.4649 10.7805C20.1022 10.7805 19.7913 10.9611 19.61 11.2448C19.4287 11.5542 19.4287 11.9153 19.61 12.2248C19.7913 12.5343 20.1281 12.7148 20.4649 12.689C20.983 12.6632 21.3974 12.2506 21.3974 11.7348C21.3974 11.219 20.983 10.8063 20.4649 10.7805Z" fill="white"/>
<path d="M22.7705 12.844C22.3819 12.844 22.071 13.1535 22.071 13.5403C22.071 13.9272 22.3819 14.2367 22.7705 14.2367C23.159 14.2367 23.4699 13.9272 23.4699 13.5403C23.4958 13.1535 23.185 12.844 22.7705 12.844Z" fill="white"/>
<path d="M23.7549 15.2942C23.4699 15.2942 23.2367 15.5263 23.2367 15.81C23.2367 16.0937 23.4699 16.3258 23.7549 16.3258C24.0399 16.3258 24.2731 16.0937 24.2731 15.81C24.2731 15.5263 24.0399 15.2942 23.7549 15.2942Z" fill="white"/>
<path d="M27.3036 16.0935C26.8114 16.0935 26.397 16.5062 26.397 16.9962C26.397 17.4862 26.8114 17.8989 27.3036 17.8989C27.7958 17.8989 28.2103 17.4862 28.2103 16.9962C28.2103 16.5062 27.7958 16.0935 27.3036 16.0935Z" fill="white"/>
<path d="M31.0598 17.2026C30.5158 17.2026 30.1013 17.6411 30.1013 18.1569C30.1013 18.6985 30.5417 19.1112 31.0598 19.1112C31.6038 19.1112 32.0183 18.6727 32.0183 18.1569C32.0183 17.6411 31.6038 17.2026 31.0598 17.2026Z" fill="white"/>
<path d="M30.1014 20.5813C29.6092 20.5813 29.1947 20.994 29.1947 21.484C29.1947 21.974 29.6092 22.3867 30.1014 22.3867C30.5936 22.3867 31.008 21.974 31.008 21.484C31.008 20.994 30.6195 20.5813 30.1014 20.5813Z" fill="white"/>
<path d="M28.4695 23.4182C28.0551 23.4182 27.6924 23.7535 27.6924 24.1919C27.6924 24.6046 28.0291 24.9657 28.4695 24.9657C28.884 24.9657 29.2208 24.6046 29.2208 24.1919C29.2208 23.7793 28.884 23.444 28.4695 23.4182Z" fill="white"/>
<path d="M26.5007 25.533C26.2676 25.533 26.0344 25.6619 25.9049 25.8682C25.7754 26.0746 25.7754 26.3325 25.9049 26.5388C26.0344 26.7451 26.2416 26.8741 26.5007 26.8741C26.8634 26.8741 27.1742 26.5904 27.1742 26.2035C27.1742 25.8424 26.8634 25.533 26.5007 25.533Z" fill="white"/>
<path d="M24.4283 27.0803C24.1174 27.0803 23.8583 27.3382 23.8583 27.6477C23.8583 27.9572 24.1174 28.2151 24.4283 28.2151C24.7392 28.2151 24.9983 27.9572 24.9983 27.6477C24.9983 27.3382 24.7392 27.0803 24.4283 27.0803Z" fill="white"/>
<path d="M22.071 27.9575C21.7083 27.9575 21.3975 28.2412 21.3975 28.6281C21.3975 28.9892 21.6824 29.2986 22.071 29.2986C22.4337 29.2986 22.7445 29.0149 22.7445 28.6281C22.7186 28.2412 22.4337 27.9575 22.071 27.9575Z" fill="white"/>
<path d="M19.299 28.3958C18.8845 28.3958 18.5219 28.731 18.5219 29.1695C18.5219 29.5821 18.8586 29.9432 19.299 29.9432C19.7135 29.9432 20.0761 29.6079 20.0761 29.1695C20.0502 28.731 19.7135 28.3958 19.299 28.3958Z" fill="white"/>
<path d="M16.1386 28.0862C15.5946 28.0862 15.1542 28.5246 15.1542 29.0662C15.1542 29.6078 15.5946 30.0463 16.1386 30.0463C16.6826 30.0463 17.1229 29.6078 17.1229 29.0662C17.1229 28.5246 16.6826 28.0862 16.1386 28.0862Z" fill="white"/>
<path d="M12.7971 26.8999C12.1494 26.8999 11.6313 27.4157 11.6313 28.0605C11.6313 28.7053 12.1494 29.2211 12.7971 29.2211C13.4447 29.2211 13.9628 28.7053 13.9628 28.0605C13.9887 27.4157 13.4447 26.8999 12.7971 26.8999Z" fill="white"/>
<path d="M9.86982 24.6819C9.37763 24.6819 8.91134 24.9398 8.65229 25.3524C8.39325 25.7909 8.39325 26.3067 8.65229 26.7451C8.91134 27.1836 9.37763 27.4415 9.86982 27.4157C10.6211 27.3899 11.2169 26.7967 11.2169 26.0488C11.2169 25.3267 10.6211 24.7077 9.86982 24.6819Z" fill="white"/>
<path d="M7.40885 21.3806C6.5799 21.3806 5.90637 22.0512 5.90637 22.8765C5.90637 23.7018 6.5799 24.3723 7.40885 24.3723C8.23781 24.3723 8.91133 23.7018 8.91133 22.8765C8.91133 22.0254 8.23781 21.3806 7.40885 21.3806Z" fill="white"/>
<path d="M7.20919 19.1825C7.25585 18.529 6.76149 17.9615 6.10502 17.915C5.44855 17.8686 4.87856 18.3608 4.83191 19.0143C4.78526 19.6679 5.27961 20.2354 5.93608 20.2819C6.59255 20.3283 7.16254 19.8361 7.20919 19.1825Z" fill="white"/>
<path d="M6.90373 15.5841C6.933 15.0579 6.52825 14.6077 5.99969 14.5785C5.47114 14.5494 5.01892 14.9523 4.98965 15.4786C4.96038 16.0048 5.36513 16.455 5.89369 16.4842C6.42225 16.5133 6.87446 16.1103 6.90373 15.5841Z" fill="white"/>
<path d="M6.91656 11.2964C6.42436 11.2964 6.00989 11.709 6.00989 12.1991C6.00989 12.6891 6.42436 13.1017 6.91656 13.1017C7.40875 13.1017 7.82323 12.6891 7.82323 12.1991C7.82323 11.709 7.40875 11.2964 6.91656 11.2964Z" fill="white"/>
<path d="M8.54862 8.74292C8.26367 8.74292 8.00462 8.87187 7.8751 9.12978C7.74557 9.3619 7.74557 9.67139 7.8751 9.90351C8.00462 10.1356 8.28957 10.2904 8.54862 10.2904C8.9631 10.2904 9.29986 9.9293 9.29986 9.51664C9.29986 9.0782 8.9631 8.74292 8.54862 8.74292Z" fill="white"/>
<path d="M10.5173 6.83447C10.1546 6.83447 9.84375 7.11817 9.84375 7.50503C9.84375 7.8661 10.1287 8.17559 10.5173 8.17559C10.9058 8.17559 11.1908 7.8919 11.1908 7.50503C11.1908 7.14396 10.8799 6.83447 10.5173 6.83447Z" fill="white"/>
<path d="M12.5899 5.49341C12.279 5.49341 12.0199 5.75132 12.0199 6.06081C12.0199 6.3703 12.279 6.6282 12.5899 6.6282C12.9008 6.6282 13.1599 6.3703 13.1599 6.06081C13.1599 5.72553 12.9008 5.49341 12.5899 5.49341Z" fill="white"/>
<path d="M14.9471 4.43604C14.5844 4.43604 14.2736 4.71973 14.2736 5.1066C14.2736 5.46767 14.5585 5.77716 14.9471 5.77716C15.3098 5.77716 15.6206 5.49346 15.6206 5.1066C15.6206 4.71973 15.3098 4.43604 14.9471 4.43604Z" fill="white"/>
<path d="M17.7189 3.76562C17.434 3.76562 17.1749 3.89458 17.0454 4.15249C16.9159 4.3846 16.9159 4.69409 17.0454 4.92621C17.1749 5.15833 17.4599 5.31307 17.7189 5.31307C18.1334 5.31307 18.4702 4.952 18.4702 4.53935C18.4702 4.1267 18.1334 3.79142 17.7189 3.76562Z" fill="white"/>
<path d="M20.8793 3.63647C20.5166 3.63647 20.1799 3.81701 19.9985 4.1265C19.8172 4.43599 19.8172 4.82285 19.9985 5.13234C20.1799 5.44183 20.5166 5.62237 20.8793 5.62237C21.4233 5.62237 21.8637 5.15813 21.8637 4.61652C21.8637 4.07492 21.4233 3.63647 20.8793 3.63647Z" fill="white"/>
<path d="M24.1174 4.38452C23.4698 4.38452 22.9258 4.90034 22.9258 5.5709C22.9258 6.21567 23.4439 6.75728 24.1174 6.75728C24.765 6.75728 25.309 6.24146 25.309 5.5709C25.309 4.92613 24.765 4.38452 24.1174 4.38452Z" fill="white"/>
<path d="M27.1742 6.24146C26.3971 6.24146 25.8013 6.86043 25.8013 7.60837C25.8013 8.3563 26.423 8.97528 27.1742 8.97528C27.9514 8.97528 28.5472 8.3563 28.5472 7.60837C28.5472 6.86043 27.9255 6.24146 27.1742 6.24146Z" fill="white"/>
<path d="M29.6093 9.33643C29.0653 9.33643 28.5731 9.62012 28.2882 10.0844C28.0032 10.5486 28.0032 11.116 28.2882 11.5802C28.5731 12.0445 29.0653 12.3282 29.6093 12.3282C30.4383 12.3024 31.0859 11.6576 31.0859 10.8323C31.06 10.0328 30.4124 9.36222 29.6093 9.33643Z" fill="white"/>
<path d="M30.9823 13.437C30.5678 13.437 30.1533 13.6433 29.9461 14.0044C29.7388 14.3655 29.7388 14.8297 29.9461 15.1908C30.1533 15.5519 30.5678 15.784 30.9823 15.7582C31.6299 15.7324 32.1221 15.2166 32.1221 14.5976C32.1221 13.9786 31.6299 13.4628 30.9823 13.437Z" fill="white"/>
<path d="M37.018 16.8414C37.018 17.9247 36.1372 18.8015 35.0492 18.8015C33.9612 18.8015 33.0804 17.9247 33.0804 16.8414C33.0804 15.7582 33.9612 14.8813 35.0492 14.8813C36.1372 14.9071 37.018 15.784 37.018 16.8414Z" fill="white"/>
<path d="M133.954 19.859C133.954 18.0021 132.892 17.022 131.234 16.3515C129.939 15.8357 128.799 15.3972 127.918 15.0361C127.063 14.7009 126.312 14.1077 126.312 13.4629C126.312 12.586 127.4 12.0702 128.851 12.0702C130.56 12.0702 131.907 12.3023 133.177 12.4313H133.229C133.436 12.4313 133.565 12.2765 133.565 12.0702V10.6259C133.565 10.4454 133.41 10.2906 133.203 10.2648C132.529 10.1101 130.819 9.74902 128.954 9.74902C125.328 9.74902 123.592 11.2965 123.592 13.4629C123.592 14.8298 124.188 16.1709 125.898 16.8673C127.607 17.5636 131.104 18.3889 131.104 19.8332C131.104 20.968 130.586 21.587 128.825 21.587C127.011 21.587 125.172 21.3291 124.395 21.2259H124.343C124.136 21.2259 123.981 21.3807 123.981 21.587V22.9797C123.981 23.186 124.162 23.3408 124.343 23.3666C125.276 23.5729 127.037 23.8824 128.773 23.8824C132.736 23.934 133.954 21.8191 133.954 19.859Z" fill="white"/>
<path d="M95.6146 12.1734H91.7029V23.3666C91.7029 23.5729 91.5216 23.7535 91.3144 23.7535H89.3715C89.1643 23.7535 88.9829 23.5729 88.9829 23.3666V12.1734H85.0713C84.8641 12.1734 84.6827 12.0444 84.6827 11.8123V10.2649C84.6827 10.0586 84.8641 9.90381 85.0713 9.90381H95.6146C95.8218 9.90381 96.0032 10.0586 96.0032 10.2649V11.8123C96.0032 12.0444 95.8218 12.1734 95.6146 12.1734Z" fill="white"/>
<path d="M82.9731 18.4149V10.2908C82.9731 10.0844 82.7918 9.92969 82.5846 9.92969H80.6417C80.4345 9.92969 80.2531 10.0844 80.2531 10.2908V18.3891C80.2531 20.6071 79.2169 21.6645 77.1187 21.6645C75.0204 21.6645 73.9842 20.6071 73.9842 18.3891V10.2908C73.9842 10.0844 73.8028 9.92969 73.5956 9.92969H71.6527C71.4455 9.92969 71.2642 10.0844 71.2642 10.2908V18.3891C71.2642 22.5414 73.9842 23.9083 77.1187 23.9083C80.2531 23.9083 82.9731 22.5672 82.9731 18.4149Z" fill="white"/>
<path d="M100.511 17.744H106.78C106.987 17.744 107.168 17.5635 107.168 17.3572V15.9387C107.168 15.7323 106.987 15.5518 106.78 15.5518H100.511V13.7722C100.511 12.1474 100.563 12.0958 102.065 12.0958H107.013C107.22 12.0958 107.401 11.9153 107.401 11.709V10.471C107.401 10.1873 107.298 10.1099 107.013 10.0584C106.391 9.9552 105.122 9.77466 102.79 9.77466C99.5523 9.77466 97.8167 9.74887 97.8167 13.7722V19.9362C97.8167 23.9596 99.5523 23.9338 102.79 23.9338C105.122 23.9338 106.391 23.7533 107.013 23.6501C107.298 23.6243 107.401 23.5212 107.401 23.2375V21.9995C107.401 21.7932 107.22 21.6126 107.013 21.6126H102.065C100.588 21.6126 100.511 21.5611 100.511 19.9362V17.744Z" fill="white"/>
<path d="M61.8348 17.744H68.1038C68.3111 17.744 68.4924 17.5635 68.4924 17.3572V15.9387C68.4924 15.7323 68.3111 15.5518 68.1038 15.5518H61.8348V13.7722C61.8348 12.1474 61.8867 12.0958 63.3891 12.0958H68.337C68.5442 12.0958 68.7255 11.9153 68.7255 11.709V10.471C68.7255 10.1873 68.6219 10.1099 68.337 10.0584C67.7152 9.9552 66.4459 9.77466 64.1145 9.77466C60.8764 9.77466 59.1407 9.74887 59.1407 13.7722V19.9362C59.1407 23.9596 60.8764 23.9338 64.1145 23.9338C66.4459 23.9338 67.7152 23.7533 68.337 23.6501C68.6219 23.6243 68.7255 23.5212 68.7255 23.2375V21.9995C68.7255 21.7932 68.5442 21.6126 68.337 21.6126H63.3891C61.9126 21.6126 61.8348 21.5611 61.8348 19.9362V17.744Z" fill="white"/>
<path d="M121.96 23.3664L118.903 18.1567C120.509 17.5377 121.545 16.4029 121.545 14.3396V14.1849C121.545 10.8579 118.774 9.77466 115.743 9.77466C114.318 9.77466 112.116 9.87782 111.106 10.0326C110.717 10.0841 110.484 10.2389 110.484 10.6258V23.3922C110.484 23.5985 110.665 23.7791 110.873 23.7791H112.841C113.049 23.7791 113.204 23.5985 113.204 23.3922V18.5693C113.645 18.5951 115.225 18.6467 115.743 18.6467H116.183L119.007 23.3664C119.11 23.5469 119.188 23.7533 119.395 23.7533H121.779C121.934 23.7533 122.012 23.6501 122.012 23.5212C122.012 23.4696 121.986 23.418 121.96 23.3664ZM118.825 14.3396C118.825 16.0418 117.737 16.4287 115.717 16.4287C115.38 16.4287 113.489 16.3771 113.178 16.3771V12.1732C113.515 12.1216 115.302 12.0958 115.717 12.0958C117.686 12.0958 118.825 12.7148 118.825 14.1849V14.3396Z" fill="white"/>
<path d="M57.0165 23.3664L53.9338 18.1567C55.5399 17.5377 56.5761 16.4029 56.5761 14.3396V14.1849C56.5761 10.8579 53.8043 9.77466 50.7735 9.77466C49.3487 9.77466 47.1468 9.87782 46.1365 10.0326C45.7479 10.0841 45.5148 10.2389 45.5148 10.6258V23.3922C45.5148 23.5985 45.6961 23.7791 45.9033 23.7791H47.8721C48.0793 23.7791 48.2348 23.5985 48.2348 23.3922V18.5693C48.6752 18.5951 50.2554 18.6467 50.7735 18.6467H51.2138L54.0375 23.3664C54.1411 23.5469 54.2188 23.7533 54.426 23.7533H56.8093C56.9647 23.7533 57.0424 23.6501 57.0424 23.5212C57.0424 23.4696 57.0424 23.418 57.0165 23.3664ZM53.882 14.3396C53.882 16.0418 52.794 16.4287 50.7994 16.4287C50.4626 16.4287 48.5715 16.3771 48.2607 16.3771V12.1732C48.5974 12.1216 50.3849 12.0958 50.7994 12.0958C52.7681 12.0958 53.882 12.7148 53.882 14.1849V14.3396Z" fill="white"/>
</g>
<defs>
<clipPath id="clip0_1578_5348">
<rect width="133.954" height="33.6828" fill="white"/>
</clipPath>
</defs>
</svg>
