<svg width="32" height="32" viewBox="0 0 32 32" fill="none" xmlns="http://www.w3.org/2000/svg">
<path d="M6.66663 29.3333H3.99996C3.26396 29.3333 2.66663 28.736 2.66663 28V22.6666C2.66663 21.9306 3.26396 21.3333 3.99996 21.3333H6.66663C7.40263 21.3333 7.99996 21.9306 7.99996 22.6666V28C7.99996 28.736 7.40263 29.3333 6.66663 29.3333Z" fill="#00B881"/>
<path opacity="0.4" d="M28 23.1466C28 23.68 27.76 24.2 27.3334 24.5333L22.8 28.16C21.8533 28.92 20.68 29.3333 19.4667 29.3333H12C10.5334 29.3333 9.33337 28.1333 9.33337 26.6666V24C9.33337 22.5333 10.5334 21.3333 12 21.3333H18.8267C19.6534 21.3333 20.3334 22 20.3334 22.8266C20.3334 23.6666 19.6534 24.3333 18.8267 24.3333H14.6667C14.12 24.3333 13.6667 24.7866 13.6667 25.3333C13.6667 25.88 14.12 26.3333 14.6667 26.3333H18.8267C20.56 26.3333 22 25.0666 22.28 23.4266L25.3067 21.6133C25.6 21.4399 25.9068 21.36 26.2134 21.36C27.1468 21.36 28 22.1066 28 23.1466Z" fill="#00B881"/>
<path opacity="0.4" d="M17.3333 11.3333H14.6666C11.7146 11.3333 10.6666 13.4947 10.6666 15.3454C10.6666 17.032 11.6386 18 13.3346 18H18.6653C20.36 18 21.3333 17.032 21.3333 15.3454C21.3333 13.4947 20.2853 11.3333 17.3333 11.3333Z" fill="#00B881"/>
<path d="M16.0067 9.33331C17.6636 9.33331 19.0067 7.99017 19.0067 6.33331C19.0067 4.67646 17.6636 3.33331 16.0067 3.33331C14.3499 3.33331 13.0067 4.67646 13.0067 6.33331C13.0067 7.99017 14.3499 9.33331 16.0067 9.33331Z" fill="#00B881"/>
</svg>
