<svg width="32" height="32" viewBox="0 0 32 32" fill="none" xmlns="http://www.w3.org/2000/svg">
<path opacity="0.4" d="M9.33337 28H22.6667C25.3334 28 26.6667 26.6667 26.6667 24V8C26.6667 5.33333 25.3334 4 22.6667 4H9.33337C6.66671 4 5.33337 5.33333 5.33337 8V24C5.33337 26.6667 6.66671 28 9.33337 28Z" fill="#00B881"/>
<path d="M21.3333 17H10.6666C10.1146 17 9.66663 16.552 9.66663 16C9.66663 15.448 10.1146 15 10.6666 15H21.3333C21.8853 15 22.3333 15.448 22.3333 16C22.3333 16.552 21.8853 17 21.3333 17ZM18.3333 21.3333C18.3333 20.7813 17.8853 20.3333 17.3333 20.3333H10.6666C10.1146 20.3333 9.66663 20.7813 9.66663 21.3333C9.66663 21.8853 10.1146 22.3333 10.6666 22.3333H17.3333C17.8853 22.3333 18.3333 21.8853 18.3333 21.3333ZM22.3333 10.6666C22.3333 10.1146 21.8853 9.66663 21.3333 9.66663H10.6666C10.1146 9.66663 9.66663 10.1146 9.66663 10.6666C9.66663 11.2186 10.1146 11.6666 10.6666 11.6666H21.3333C21.8853 11.6666 22.3333 11.2186 22.3333 10.6666Z" fill="#00B881"/>
</svg>
