<svg width="32" height="32" viewBox="0 0 32 32" fill="none" xmlns="http://www.w3.org/2000/svg">
<path opacity="0.4" d="M4.00267 15.9987C4.00267 17.7854 4.40278 19.492 5.10944 21.012C5.38944 21.5987 5.38952 22.2787 5.18952 22.9054L4.0694 26.2387C3.72274 27.2787 4.72276 28.2787 5.76276 27.932L9.0961 26.8121C9.72276 26.6121 10.4027 26.612 10.9893 26.892C12.5093 27.5987 14.216 27.9987 16.0027 27.9987C22.6293 27.9987 28.0014 22.6267 28.0014 16C28.0014 9.37337 22.6293 4.00134 16.0027 4.00134C9.37467 4.00001 4.00267 9.37207 4.00267 15.9987Z" fill="#00B881"/>
<path d="M21.2334 15.7254C20.5374 19.2841 16 21.3334 16 21.3334C16 21.3334 11.4626 19.2841 10.7666 15.7254C10.3399 13.5414 11.2719 11.3454 13.6412 11.3334C15.4066 11.3254 15.9987 13.0907 15.9987 13.0907C15.9987 13.0907 16.5908 11.3241 18.3561 11.3334C20.7321 11.3454 21.66 13.5414 21.2334 15.7254Z" fill="#00B881"/>
</svg>
