<svg width="32" height="32" viewBox="0 0 32 32" fill="none" xmlns="http://www.w3.org/2000/svg">
<path opacity="0.4" d="M25.3333 16C25.3333 17.4667 26.5333 18.6667 28 18.6667V22.6667C28 25.3334 26.6667 26.6667 24 26.6667H8C5.33333 26.6667 4 25.3334 4 22.6667V18.6667C5.46667 18.6667 6.66667 17.4667 6.66667 16C6.66667 14.5334 5.46667 13.3334 4 13.3334V9.33337C4 6.66671 5.33333 5.33337 8 5.33337H24C26.6667 5.33337 28 6.66671 28 9.33337V13.3334C26.5333 13.3334 25.3333 14.5334 25.3333 16Z" fill="#00B881"/>
<path d="M16.6053 11.0399L17.8279 13.4973C17.9199 13.6826 18.0974 13.8106 18.3027 13.84L21.1253 14.2466C21.6426 14.3213 21.8492 14.9533 21.4746 15.3159L19.4347 17.2893C19.2854 17.4333 19.2172 17.6413 19.2532 17.8453L19.72 20.5453C19.8147 21.0933 19.2373 21.5106 18.7413 21.2533L16.2933 19.9759C16.1093 19.8799 15.8907 19.8799 15.7067 19.9759L13.2599 21.2519C12.7639 21.5106 12.1853 21.092 12.2799 20.5426L12.7467 17.8439C12.7814 17.6399 12.7132 17.4319 12.5652 17.2879L10.5254 15.3146C10.1507 14.9519 10.3573 14.3199 10.8746 14.2453L13.6972 13.8386C13.9026 13.8093 14.08 13.6813 14.172 13.496L15.3947 11.0386C15.6427 10.5413 16.3573 10.5413 16.6053 11.0399Z" fill="#00B881"/>
</svg>
