<svg width="32" height="32" viewBox="0 0 32 32" fill="none" xmlns="http://www.w3.org/2000/svg">
<path opacity="0.4" d="M10.92 24.092L10.916 24.0893C9.67335 23.3693 8.14 23.3667 6.896 24.084C6.684 24.2067 6.41202 24.1333 6.28935 23.9226L4.06002 20.076C3.93735 19.864 4.00932 19.5933 4.22132 19.4707L4.23332 19.464C5.47065 18.7467 6.23199 17.4227 6.22799 15.9933C6.22399 14.5653 5.46269 13.248 4.22669 12.532L4.22001 12.528C4.00935 12.4053 3.93734 12.136 4.05868 11.9267L6.28935 8.07601C6.41202 7.86534 6.68135 7.79334 6.89335 7.91467C8.13869 8.63201 9.67202 8.63068 10.916 7.90934L10.92 7.908C12.1533 7.19333 12.9133 5.87467 12.9133 4.44934C12.9133 4.20134 13.1147 4.00134 13.3627 4.00134H18.636C18.884 4.00134 19.0853 4.20267 19.0853 4.44934C19.0853 5.87467 19.8453 7.19333 21.0787 7.908L21.0827 7.90934C22.3267 8.63068 23.86 8.63201 25.1054 7.91467C25.3174 7.79334 25.5867 7.86534 25.7094 8.07601L27.9387 11.924C28.0613 12.136 27.9893 12.4067 27.7773 12.5293L27.7667 12.5347C26.5307 13.2507 25.7694 14.5733 25.772 16.0013C25.7747 17.4307 26.536 18.752 27.7733 19.4693L27.7787 19.472C27.9894 19.5947 28.0613 19.864 27.9387 20.0733L25.708 23.924C25.5853 24.1347 25.316 24.2067 25.104 24.0853C23.8587 23.368 22.324 23.3693 21.0813 24.0907L21.0787 24.092C19.844 24.808 19.0853 26.1253 19.0853 27.552C19.0853 27.7987 18.884 27.9987 18.6373 27.9987H13.3587C13.1107 27.9987 12.9094 27.7987 12.9107 27.5507C12.912 26.1267 12.1533 24.808 10.92 24.092Z" fill="#00B881"/>
<path d="M16.0013 20C18.2105 20 20.0013 18.2091 20.0013 16C20.0013 13.7909 18.2105 12 16.0013 12C13.7922 12 12.0013 13.7909 12.0013 16C12.0013 18.2091 13.7922 20 16.0013 20Z" fill="#00B881"/>
</svg>
