<svg width="32" height="32" viewBox="0 0 32 32" fill="none" xmlns="http://www.w3.org/2000/svg">
<path d="M4.00133 15.7334C3.96533 15.7334 3.92807 15.732 3.89074 15.728C3.3414 15.668 2.9454 15.1733 3.0054 14.6253C3.4894 10.2026 6.15871 6.39333 10.1454 4.436C10.456 4.284 10.8227 4.30265 11.1147 4.48531C11.408 4.66798 11.5867 4.98926 11.5867 5.3346V9.40133C11.5867 9.95333 11.1387 10.4013 10.5867 10.4013C10.0347 10.4013 9.5867 9.95333 9.5867 9.40133V7.08004C7.0227 8.86404 5.34132 11.6652 4.99466 14.8426C4.93866 15.3532 4.504 15.7334 4.00133 15.7334Z" fill="#00B881"/>
<path d="M21.4133 27.6667C21.2293 27.6667 21.0453 27.616 20.8853 27.516C20.592 27.3334 20.4133 27.0121 20.4133 26.6667V22.6C20.4133 22.048 20.8613 21.6 21.4133 21.6C21.9653 21.6 22.4133 22.048 22.4133 22.6V24.9215C24.9773 23.1375 26.6587 20.3361 27.0067 17.1588C27.0667 16.6094 27.564 16.2147 28.108 16.2734C28.6573 16.3334 29.0547 16.8281 28.9933 17.3761C28.5107 21.7987 25.8413 25.608 21.8547 27.5653C21.7147 27.6333 21.564 27.6667 21.4133 27.6667Z" fill="#00B881"/>
<path opacity="0.4" d="M21.3333 14.6667C24.2789 14.6667 26.6667 12.2789 26.6667 9.33333C26.6667 6.38781 24.2789 4 21.3333 4C18.3878 4 16 6.38781 16 9.33333C16 12.2789 18.3878 14.6667 21.3333 14.6667Z" fill="#00B881"/>
<path opacity="0.4" d="M10.6667 28C13.6122 28 16 25.6122 16 22.6667C16 19.7212 13.6122 17.3334 10.6667 17.3334C7.72119 17.3334 5.33337 19.7212 5.33337 22.6667C5.33337 25.6122 7.72119 28 10.6667 28Z" fill="#00B881"/>
</svg>
