<svg width="44" height="44" viewBox="0 0 44 44" fill="none" xmlns="http://www.w3.org/2000/svg">
<path opacity="0.4" d="M13.75 33.0184C13.75 34.3567 14.1533 35.5666 14.905 36.6116C9.99168 36.3 5.5 34.5034 5.5 31.185V29.5717C7.425 31.075 10.2667 32.0833 13.75 32.4133V33.0184ZM13.8051 25.5567C10.2851 25.245 7.425 24.2367 5.5 22.715V24.3284C5.5 27.3901 9.31333 29.15 13.75 29.6633V26.1617C13.75 25.9784 13.7684 25.795 13.8051 25.6116C13.8051 25.5933 13.805 25.575 13.8233 25.5567H13.8051ZM16.5 19.2133C11.7517 19.2133 7.90167 18.1133 5.5 16.225V17.4717C5.5 20.7717 9.91835 22.5683 14.795 22.88C16.005 21.12 18.1867 19.7084 20.9733 18.8467C19.5983 19.0851 18.095 19.2133 16.5 19.2133ZM23.3566 18.2783C24.64 18.0583 26.015 17.9301 27.4633 17.9301C27.4816 17.7834 27.5 17.6367 27.5 17.4717V16.225C26.4 17.0866 25.0066 17.7833 23.3566 18.2783Z" fill="#00B881"/>
<path d="M16.5 16.4633C22.5751 16.4633 27.5 14.0091 27.5 10.9816C27.5 7.95421 22.5751 5.5 16.5 5.5C10.4249 5.5 5.5 7.95421 5.5 10.9816C5.5 14.0091 10.4249 16.4633 16.5 16.4633Z" fill="#00B881"/>
<path opacity="0.4" d="M38.5 31.2217V33.0184C38.5 36.6667 33 38.5 27.5 38.5C22 38.5 16.5 36.6667 16.5 33.0184V31.2217C18.975 33.1834 22.8983 34.3934 27.5 34.3934C32.1017 34.3934 36.025 33.1834 38.5 31.2217Z" fill="#00B881"/>
<path d="M38.5 26.1617C38.5 29.1867 33.5683 31.6434 27.5 31.6434C21.4317 31.6434 16.5 29.1867 16.5 26.1617C16.5 23.1367 21.4317 20.6801 27.5 20.6801C33.5683 20.6801 38.5 23.1367 38.5 26.1617Z" fill="#00B881"/>
</svg>
