<svg width="40" height="40" viewBox="0 0 40 40" fill="none" xmlns="http://www.w3.org/2000/svg">
<g clip-path="url(#clip0_1578_5238)">
<path fill-rule="evenodd" clip-rule="evenodd" d="M8.97075 20.0635C9.61897 21.8648 10.6916 23.4834 12.0978 24.7823C13.0768 25.6792 13.8481 26.779 14.3578 28.005H18.9405V18.4263C18.1632 18.1515 17.4899 17.6433 17.0126 16.9712C16.5352 16.2991 16.2772 15.496 16.2738 14.6716C16.2738 14.318 16.4143 13.9789 16.6643 13.7288C16.9144 13.4788 17.2535 13.3383 17.6071 13.3383C17.9607 13.3383 18.2999 13.4788 18.5499 13.7288C18.8 13.9789 18.9405 14.318 18.9405 14.6716C18.9405 15.0252 19.0809 15.3644 19.331 15.6144C19.581 15.8645 19.9202 16.005 20.2738 16.005C20.6274 16.005 20.9665 15.8645 21.2166 15.6144C21.4666 15.3644 21.6071 15.0252 21.6071 14.6716C21.6071 14.318 21.7476 13.9789 21.9976 13.7288C22.2477 13.4788 22.5868 13.3383 22.9405 13.3383C23.2941 13.3383 23.6332 13.4788 23.8833 13.7288C24.1333 13.9789 24.2738 14.318 24.2738 14.6716C24.2704 15.496 24.0123 16.2991 23.535 16.9712C23.0577 17.6433 22.3843 18.1515 21.6071 18.4263V28.005H26.0578C26.5144 26.8534 27.2438 25.8299 28.1831 25.0223C29.6419 23.743 30.7687 22.1291 31.467 20.3189C32.1654 18.5087 32.4143 16.5562 32.1926 14.6286C31.9709 12.7011 31.2851 10.8561 30.1939 9.25173C29.1028 7.64735 27.639 6.33148 25.9278 5.41688C24.2167 4.50228 22.3093 4.01623 20.3691 4.0004C18.4289 3.98457 16.5139 4.43942 14.788 5.32598C13.0622 6.21253 11.577 7.50435 10.4599 9.0907C9.34277 10.6771 8.62694 12.5106 8.37379 14.4343C8.11776 16.3314 8.32253 18.2623 8.97075 20.0635ZM19.8539 36.0049C19.8561 36.0049 19.8583 36.005 19.8605 36.005H20.6871C20.6893 36.005 20.6915 36.0049 20.6937 36.0049H19.8539Z" fill="#00B881"/>
<path opacity="0.4" fill-rule="evenodd" clip-rule="evenodd" d="M19.6528 4.00495H20.342C20.2598 4.00259 20.1776 4.00107 20.0953 4.0004C19.9476 3.99919 19.8001 4.00072 19.6528 4.00495ZM14.6666 31.085V30.6716H25.3333V31.085C25.3319 32.3894 24.8131 33.64 23.8907 34.5624C22.9683 35.4847 21.7177 36.0035 20.4133 36.005H19.5866C18.2822 36.0035 17.0316 35.4847 16.1092 34.5624C15.1868 33.64 14.668 32.3894 14.6666 31.085Z" fill="#00B881"/>
</g>
<defs>
<clipPath id="clip0_1578_5238">
<rect width="32" height="32" fill="white" transform="translate(4 4)"/>
</clipPath>
</defs>
</svg>
