<svg width="40" height="40" viewBox="0 0 40 40" fill="none" xmlns="http://www.w3.org/2000/svg">
<g clip-path="url(#clip0_1578_5232)">
<path d="M14 21.3333C12.8133 21.3333 11.6533 20.9814 10.6666 20.3221C9.67988 19.6628 8.91085 18.7258 8.45672 17.6294C8.0026 16.5331 7.88378 15.3267 8.11529 14.1628C8.3468 12.9989 8.91824 11.9298 9.75736 11.0907C10.5965 10.2516 11.6656 9.68012 12.8295 9.4486C13.9933 9.21709 15.1997 9.33591 16.2961 9.79004C17.3925 10.2442 18.3295 11.0132 18.9888 11.9999C19.6481 12.9866 20 14.1466 20 15.3333C19.9982 16.9241 19.3655 18.4492 18.2407 19.574C17.1159 20.6988 15.5908 21.3316 14 21.3333ZM22.6667 36H5.33333C4.97971 36 4.64057 35.8595 4.39052 35.6095C4.14048 35.3594 4 35.0203 4 34.6666V34C4 31.3478 5.05357 28.8043 6.92893 26.9289C8.8043 25.0536 11.3478 24 14 24C16.6522 24 19.1957 25.0536 21.0711 26.9289C22.9464 28.8043 24 31.3478 24 34V34.6666C24 35.0203 23.8595 35.3594 23.6095 35.6095C23.3594 35.8595 23.0203 36 22.6667 36Z" fill="#00B881"/>
<path opacity="0.4" d="M27.3334 16C26.1467 16 24.9866 15.6481 23.9999 14.9888C23.0133 14.3295 22.2442 13.3925 21.7901 12.2961C21.336 11.1997 21.2171 9.99335 21.4487 8.82946C21.6802 7.66557 22.2516 6.59648 23.0907 5.75736C23.9298 4.91825 24.9989 4.3468 26.1628 4.11529C27.3267 3.88378 28.5331 4.0026 29.6295 4.45673C30.7258 4.91085 31.6629 5.67989 32.3222 6.66658C32.9815 7.65328 33.3334 8.81331 33.3334 10C33.3316 11.5908 32.6989 13.1159 31.5741 14.2407C30.4492 15.3655 28.9241 15.9982 27.3334 16ZM25.4387 18.6947C24.1969 18.8613 23.0028 19.2825 21.9314 19.9321C20.8599 20.5816 19.9341 21.4454 19.212 22.4693C22.1999 23.8262 24.5475 26.2856 25.764 29.3333H34.6667C35.0203 29.3333 35.3595 29.1929 35.6095 28.9428C35.8596 28.6928 36 28.3536 36 28V27.9493C35.9987 26.6203 35.7138 25.3068 35.1644 24.0966C34.615 22.8864 33.8138 21.8073 32.8142 20.9314C31.8146 20.0555 30.6397 19.4029 29.3678 19.0172C28.0959 18.6315 26.7564 18.5215 25.4387 18.6947Z" fill="#00B881"/>
</g>
<defs>
<clipPath id="clip0_1578_5232">
<rect width="32" height="32" fill="white" transform="translate(4 4)"/>
</clipPath>
</defs>
</svg>
