<svg width="40" height="40" viewBox="0 0 40 40" fill="none" xmlns="http://www.w3.org/2000/svg">
<path opacity="0.4" d="M11.3333 32C10.4493 32 9.60143 31.6488 8.97631 31.0237C8.35119 30.3986 8 29.5507 8 28.6667V6C8 5.46957 7.78929 4.96086 7.41421 4.58579C7.03914 4.21071 6.53043 4 6 4C5.46957 4 4.96086 4.21071 4.58579 4.58579C4.21071 4.96086 4 5.46957 4 6V28.6667C4 30.6116 4.77262 32.4769 6.14788 33.8521C7.52315 35.2274 9.38841 36 11.3333 36H34C34.5304 36 35.0391 35.7893 35.4142 35.4142C35.7893 35.0391 36 34.5304 36 34C36 33.4696 35.7893 32.9609 35.4142 32.5858C35.0391 32.2107 34.5304 32 34 32H11.3333Z" fill="#00B881"/>
<path d="M23.5 30C24.163 30 24.7989 29.6639 25.2678 29.0656C25.7366 28.4674 26 27.656 26 26.8099V14.0495C26 13.2034 25.7366 12.392 25.2678 11.7937C24.7989 11.1955 24.163 10.8594 23.5 10.8594C22.837 10.8594 22.2011 11.1955 21.7322 11.7937C21.2634 12.392 21 13.2034 21 14.0495V26.8099C21 27.656 21.2634 28.4674 21.7322 29.0656C22.2011 29.6639 22.837 30 23.5 30Z" fill="#00B881"/>
<path d="M14.5 30C15.163 30 15.7989 29.7366 16.2678 29.2678C16.7366 28.7989 17 28.163 17 27.5V17.5C17 16.837 16.7366 16.2011 16.2678 15.7322C15.7989 15.2634 15.163 15 14.5 15C13.837 15 13.2011 15.2634 12.7322 15.7322C12.2634 16.2011 12 16.837 12 17.5V27.5C12 28.163 12.2634 28.7989 12.7322 29.2678C13.2011 29.7366 13.837 30 14.5 30Z" fill="#00B881"/>
<path d="M32.5 30.0001C33.163 30.0001 33.7989 29.7367 34.2678 29.2678C34.7366 28.799 35 28.1631 35 27.5001V9.16675C35 8.50371 34.7366 7.86782 34.2678 7.39898C33.7989 6.93014 33.163 6.66675 32.5 6.66675C31.837 6.66675 31.2011 6.93014 30.7322 7.39898C30.2634 7.86782 30 8.50371 30 9.16675V27.5001C30 28.1631 30.2634 28.799 30.7322 29.2678C31.2011 29.7367 31.837 30.0001 32.5 30.0001Z" fill="#00B881"/>
</svg>
