<svg width="40" height="40" viewBox="0 0 40 40" fill="none" xmlns="http://www.w3.org/2000/svg">
<g clip-path="url(#clip0_1660_7725)">
<path d="M14 21.3333C12.8133 21.3333 11.6533 20.9814 10.6666 20.3221C9.67988 19.6628 8.91085 18.7257 8.45672 17.6294C8.0026 16.533 7.88378 15.3266 8.11529 14.1627C8.3468 12.9988 8.91824 11.9297 9.75736 11.0906C10.5965 10.2515 11.6656 9.68005 12.8295 9.44854C13.9933 9.21703 15.1997 9.33585 16.2961 9.78998C17.3925 10.2441 18.3295 11.0131 18.9888 11.9998C19.6481 12.9865 20 14.1466 20 15.3333C19.9982 16.924 19.3655 18.4491 18.2407 19.5739C17.1159 20.6988 15.5908 21.3315 14 21.3333ZM22.6667 35.9999H5.33333C4.97971 35.9999 4.64057 35.8594 4.39052 35.6094C4.14048 35.3594 4 35.0202 4 34.6666V33.9999C4 31.3478 5.05357 28.8042 6.92893 26.9289C8.8043 25.0535 11.3478 23.9999 14 23.9999C16.6522 23.9999 19.1957 25.0535 21.0711 26.9289C22.9464 28.8042 24 31.3478 24 33.9999V34.6666C24 35.0202 23.8595 35.3594 23.6095 35.6094C23.3594 35.8594 23.0203 35.9999 22.6667 35.9999Z" fill="#00B881"/>
<path opacity="0.4" d="M27.3333 16C26.1467 16 24.9866 15.6481 23.9999 14.9888C23.0132 14.3295 22.2442 13.3925 21.7901 12.2961C21.3359 11.1997 21.2171 9.99335 21.4486 8.82946C21.6801 7.66557 22.2516 6.59648 23.0907 5.75736C23.9298 4.91825 24.9989 4.3468 26.1628 4.11529C27.3267 3.88378 28.5331 4.0026 29.6294 4.45673C30.7258 4.91085 31.6629 5.67989 32.3222 6.66658C32.9814 7.65328 33.3333 8.81331 33.3333 10C33.3316 11.5908 32.6989 13.1159 31.574 14.2407C30.4492 15.3655 28.9241 15.9982 27.3333 16ZM25.4387 18.6947C24.1968 18.8613 23.0028 19.2825 21.9313 19.9321C20.8599 20.5816 19.9341 21.4454 19.212 22.4693C22.1999 23.8262 24.5475 26.2856 25.764 29.3333H34.6667C35.0203 29.3333 35.3594 29.1929 35.6095 28.9428C35.8595 28.6928 36 28.3536 36 28V27.9493C35.9986 26.6203 35.7137 25.3068 35.1644 24.0966C34.615 22.8864 33.8138 21.8073 32.8142 20.9314C31.8146 20.0555 30.6396 19.4029 29.3678 19.0172C28.0959 18.6315 26.7564 18.5215 25.4387 18.6947Z" fill="#00B881"/>
</g>
<defs>
<clipPath id="clip0_1660_7725">
<rect width="32" height="32" fill="white" transform="translate(4 4)"/>
</clipPath>
</defs>
</svg>
