<svg width="40" height="40" viewBox="0 0 40 40" fill="none" xmlns="http://www.w3.org/2000/svg">
<g clip-path="url(#clip0_1660_7745)">
<path d="M29.3333 9.33333H27.8667C27.5572 7.82855 26.7384 6.47646 25.5483 5.50496C24.3582 4.53345 22.8696 4.00194 21.3333 4L18.6667 4C17.1304 4.00194 15.6418 4.53345 14.4517 5.50496C13.2616 6.47646 12.4428 7.82855 12.1333 9.33333H10.6667C8.89921 9.33545 7.20474 10.0385 5.95496 11.2883C4.70518 12.5381 4.00212 14.2325 4 16L4 20H36V16C35.9979 14.2325 35.2948 12.5381 34.045 11.2883C32.7953 10.0385 31.1008 9.33545 29.3333 9.33333ZM14.912 9.33333C15.1868 8.55612 15.695 7.88279 16.3671 7.40545C17.0392 6.92811 17.8423 6.67008 18.6667 6.66667H21.3333C22.1577 6.67008 22.9608 6.92811 23.6329 7.40545C24.305 7.88279 24.8132 8.55612 25.088 9.33333H14.912Z" fill="#00B881"/>
<path opacity="0.4" d="M21.3333 24.0001C21.3333 24.3537 21.1929 24.6928 20.9428 24.9429C20.6928 25.1929 20.3536 25.3334 20 25.3334C19.6464 25.3334 19.3072 25.1929 19.0572 24.9429C18.8071 24.6928 18.6667 24.3537 18.6667 24.0001V22.6667H4V29.3334C4.00212 31.1009 4.70518 32.7953 5.95496 34.0451C7.20474 35.2949 8.89921 35.998 10.6667 36.0001H29.3333C31.1008 35.998 32.7953 35.2949 34.045 34.0451C35.2948 32.7953 35.9979 31.1009 36 29.3334V22.6667H21.3333V24.0001Z" fill="#00B881"/>
</g>
<defs>
<clipPath id="clip0_1660_7745">
<rect width="32" height="32" fill="white" transform="translate(4 4)"/>
</clipPath>
</defs>
</svg>
