<svg width="40" height="40" viewBox="0 0 40 40" fill="none" xmlns="http://www.w3.org/2000/svg">
<path d="M4.38867 15.237C4.10137 14.7041 3.96826 14.1016 4.0043 13.4973C4.04033 12.893 4.24408 12.3106 4.59267 11.8156C5.16235 10.9798 5.92526 10.2937 6.81667 9.81564L16.818 4.6103C17.801 4.09914 18.8927 3.83228 20.0007 3.83228C21.1086 3.83228 22.2003 4.09914 23.1833 4.6103L33.1833 9.81964C34.0747 10.2977 34.8377 10.9838 35.4073 11.8196C35.7559 12.3146 35.9597 12.897 35.9957 13.5013C36.0317 14.1056 35.8986 14.7081 35.6113 15.241C35.302 15.8261 34.8381 16.3151 34.2701 16.6548C33.7021 16.9945 33.0518 17.1719 32.39 17.1676H7.61134C6.94888 17.1718 6.29801 16.9939 5.72972 16.6535C5.16143 16.313 4.69755 15.823 4.38867 15.237Z" fill="#00B881"/>
<path opacity="0.4" d="M34.6667 33.5011C34.6667 32.7938 34.3857 32.1155 33.8856 31.6154C33.3855 31.1153 32.7072 30.8344 32 30.8344V20.1677H29.3333V30.8344H25.3333V20.1677H22.6667V30.8344H17.3333V20.1677H14.6667V30.8344H10.6667V20.1677H8V30.8344C7.29276 30.8344 6.61448 31.1153 6.11438 31.6154C5.61429 32.1155 5.33333 32.7938 5.33333 33.5011C4.97971 33.5011 4.64057 33.6415 4.39052 33.8916C4.14048 34.1416 4 34.4808 4 34.8344C4 35.188 4.14048 35.5272 4.39052 35.7772C4.64057 36.0273 4.97971 36.1677 5.33333 36.1677H34.6667C35.0203 36.1677 35.3594 36.0273 35.6095 35.7772C35.8595 35.5272 36 35.188 36 34.8344C36 34.4808 35.8595 34.1416 35.6095 33.8916C35.3594 33.6415 35.0203 33.5011 34.6667 33.5011Z" fill="#00B881"/>
</svg>
